# xmcd
#
# Track frame offsets:
#	150
#	22775
#	41292
#	58237
#	78812
#	103637
#	125635
#	145717
#	165665
#	183337
#	202372
#	221955
#
# Disc length: 3179 seconds
#
# Revision: 1
# Processed by: cddbd v1.5.1PL0 Copyright (c) Steve Scherf et al.
# Submitted via: CDex 1.50Beta5
#
DISCID=a80c690c
DTITLE=木村充揮 - YOU-TONE
DYEAR=1995
DGENRE=
TTITLE0=カラカラ
TTITLE1=La Cana
TTITLE2=頼むぜBABY
TTITLE3=しょっぱいね
TTITLE4=もう一度…ララバイ
TTITLE5=LA CROIX
TTITLE6=KISS KISS
TTITLE7=君とのランデブー
TTITLE8=オールライト・サン
TTITLE9=妖しい夜
TTITLE10=Bye,Bye,Bye
TTITLE11=空
EXTD=
EXTT0=
EXTT1=
EXTT2=
EXTT3=
EXTT4=
EXTT5=
EXTT6=
EXTT7=
EXTT8=
EXTT9=
EXTT10=
EXTT11=
PLAYORDER=
